<?xml version="1.0" standalone="no"?>
<!DOCTYPE svg PUBLIC "-//W3C//DTD SVG 20010904//EN"
 "http://www.w3.org/TR/2001/REC-SVG-20010904/DTD/svg10.dtd">
<svg version="1.0" xmlns="http://www.w3.org/2000/svg"
 width="700.000000pt" height="700.000000pt" viewBox="0 0 700.000000 700.000000"
 preserveAspectRatio="xMidYMid meet">
<metadata>
Created by potrace 1.14, written by Peter Selinger 2001-2017
</metadata>
<g transform="translate(0.000000,700.000000) scale(0.100000,-0.100000)"
fill="#000000" stroke="none">
<path d="M5500 4770 c-19 -10 -42 -31 -51 -47 -9 -15 -175 -550 -369 -1188
-385 -1268 -372 -1216 -314 -1276 67 -70 178 -58 220 23 29 55 714 2331 714
2371 0 53 -26 93 -75 117 -51 25 -80 25 -125 0z"/>
<path d="M1470 4455 l0 -145 215 0 215 0 0 -780 0 -780 -212 -2 -213 -3 -3
-142 -3 -143 596 0 595 0 0 145 0 145 -215 0 -215 0 0 780 0 780 215 0 215 0
0 145 0 145 -595 0 -595 0 0 -145z"/>
<path d="M3190 3530 l0 -1071 423 3 422 3 80 27 c205 69 340 209 390 403 20
77 20 253 0 328 -44 169 -158 294 -317 348 l-50 17 38 12 c91 30 199 121 242
206 53 104 69 276 37 399 -47 180 -186 310 -392 367 -73 20 -105 22 -475 26
l-398 3 0 -1071z m804 751 c108 -53 154 -130 155 -262 2 -135 -48 -223 -157
-276 -56 -28 -59 -28 -274 -31 l-218 -3 0 306 0 306 213 -3 213 -3 68 -34z
m18 -884 c127 -62 195 -190 186 -345 -8 -135 -67 -226 -180 -278 -63 -29 -64
-29 -290 -32 l-228 -3 0 346 0 346 228 -3 c225 -3 227 -3 284 -31z"/>
<path d="M1025 4391 c-16 -10 -211 -200 -432 -422 -424 -427 -423 -426 -408
-501 6 -26 93 -119 413 -441 224 -225 419 -415 434 -423 60 -32 143 -9 178 49
22 35 26 96 9 130 -6 12 -167 178 -357 370 l-347 347 347 348 c190 191 351
357 357 369 16 32 13 84 -7 122 -35 65 -126 90 -187 52z"/>
<path d="M5823 4390 c-59 -35 -83 -95 -63 -157 10 -30 89 -115 358 -385 l346
-348 -346 -347 c-366 -368 -378 -383 -358 -452 27 -95 106 -135 193 -97 18 8
207 190 434 417 433 436 433 436 411 517 -8 30 -83 111 -411 440 -221 222
-414 410 -429 418 -38 20 -97 17 -135 -6z"/>
</g>
</svg>
